<svg width="1584" height="396" viewBox="0 0 1584 396" fill="none" xmlns="http://www.w3.org/2000/svg">
<rect width="1584" height="396" fill="#282A36"/>
<path d="M632.62 202H384V324.423H632.62V202Z" fill="#3F3D56"/>
<path d="M447.028 243H426.363V245H447.028V243Z" fill="#53C1DE"/>
<path d="M474.926 243H454.261V245H474.926V243Z" fill="#53C1DE"/>
<path d="M515.222 262H494.557V264H515.222V262Z" fill="#53C1DE"/>
<path d="M544.153 262H523.488V264H544.153V262Z" fill="#53C1DE"/>
<path d="M544.153 243H482.158V245H544.153V243Z" fill="#53C1DE"/>
<path d="M487.325 262H426.363V264H487.325V262Z" fill="#53C1DE"/>
<path d="M487.325 281H426.363V283H487.325V281Z" fill="#53C1DE"/>
<path d="M544.153 281H500.757V283H544.153V281Z" fill="#53C1DE"/>
<path d="M420.68 252L412.931 243.5L420.68 235L422.23 236.701L416.031 243.5L422.23 250.299L420.68 252Z" fill="#53C1DE"/>
<path d="M563.269 291L561.719 289.3L567.917 282.499L561.719 275.7L563.269 274L571.018 282.499L563.269 291Z" fill="#53C1DE"/>
<path d="M555.934 273.817L551.582 290.558L553.572 291.261L557.924 274.52L555.934 273.817Z" fill="#53C1DE"/>
<path d="M604.261 229.32C603.791 229.141 603.318 228.975 602.84 228.822C602.92 228.464 602.993 228.105 603.06 227.744C604.135 221.933 603.432 217.252 601.031 215.712C598.729 214.234 594.964 215.775 591.161 219.458C590.787 219.822 590.42 220.196 590.063 220.58C589.823 220.325 589.579 220.074 589.331 219.828C585.346 215.89 581.352 214.23 578.953 215.776C576.653 217.258 575.972 221.658 576.94 227.165C577.036 227.71 577.145 228.253 577.266 228.792C576.701 228.97 576.155 229.161 575.633 229.363C570.961 231.177 567.977 234.018 567.977 236.966C567.977 240.01 571.18 243.063 576.047 244.915C576.441 245.064 576.839 245.203 577.24 245.33C577.11 245.911 576.994 246.496 576.893 247.084C575.97 252.495 576.691 256.791 578.985 258.264C581.354 259.784 585.331 258.221 589.203 254.454C589.509 254.156 589.816 253.84 590.124 253.509C590.511 253.925 590.909 254.329 591.316 254.721C595.067 258.313 598.771 259.764 601.063 258.287C603.43 256.762 604.199 252.146 603.201 246.531C603.124 246.102 603.036 245.664 602.936 245.218C603.215 245.126 603.489 245.031 603.757 244.933C608.816 243.067 612.107 240.051 612.107 236.966C612.107 234.008 609.027 231.147 604.261 229.32V229.32Z" fill="#53C1DE"/>
<path d="M603.164 242.941C602.922 243.03 602.675 243.116 602.422 243.199C601.864 241.231 601.11 239.138 600.188 236.976C601.068 234.865 601.793 232.799 602.336 230.844C602.787 230.99 603.225 231.143 603.647 231.305C607.731 232.869 610.222 235.183 610.222 236.966C610.222 238.865 607.532 241.33 603.164 242.941H603.164ZM601.351 246.938C601.793 249.422 601.856 251.667 601.563 253.422C601.3 254.999 600.772 256.05 600.118 256.471C598.728 257.367 595.753 256.202 592.546 253.13C592.178 252.778 591.808 252.402 591.436 252.004C592.68 250.49 593.923 248.73 595.135 246.776C597.269 246.565 599.284 246.22 601.112 245.75C601.202 246.155 601.282 246.551 601.351 246.938V246.938ZM583.022 256.316C581.663 256.85 580.581 256.865 579.927 256.446C578.535 255.552 577.956 252.102 578.746 247.475C578.839 246.928 578.947 246.384 579.068 245.844C580.875 246.289 582.876 246.609 585.015 246.802C586.236 248.715 587.514 250.473 588.803 252.012C588.529 252.307 588.249 252.594 587.962 252.874C586.25 254.54 584.534 255.722 583.022 256.316H583.022ZM576.656 242.929C574.504 242.11 572.727 241.047 571.509 239.886C570.415 238.842 569.862 237.806 569.862 236.966C569.862 235.177 572.258 232.896 576.254 231.345C576.755 231.151 577.262 230.974 577.772 230.813C578.325 232.812 579.049 234.903 579.923 237.017C579.038 239.162 578.303 241.286 577.746 243.309C577.38 243.192 577.017 243.066 576.656 242.929V242.929ZM578.79 226.762C577.961 222.044 578.512 218.485 579.898 217.592C581.374 216.64 584.639 217.997 588.079 221.398C588.299 221.615 588.52 221.843 588.742 222.078C587.46 223.61 586.193 225.355 584.982 227.256C582.907 227.47 580.92 227.814 579.094 228.275C578.981 227.773 578.88 227.269 578.79 226.762V226.762ZM597.826 231.994C597.395 231.164 596.947 230.345 596.484 229.537C597.892 229.735 599.241 229.998 600.508 230.32C600.128 231.677 599.654 233.095 599.095 234.55C598.688 233.688 598.264 232.836 597.826 231.994V231.994ZM590.063 223.578C590.933 224.626 591.804 225.797 592.66 227.067C590.923 226.976 589.182 226.975 587.444 227.066C588.302 225.807 589.18 224.638 590.063 223.578V223.578ZM582.251 232.008C581.818 232.844 581.402 233.691 581.005 234.548C580.456 233.099 579.986 231.674 579.603 230.298C580.862 229.984 582.205 229.728 583.604 229.533C583.135 230.346 582.684 231.171 582.251 232.008V232.008ZM583.644 244.548C582.198 244.368 580.835 244.125 579.577 243.82C579.966 242.42 580.446 240.964 581.007 239.483C581.406 240.342 581.823 241.189 582.258 242.025C582.702 242.878 583.164 243.719 583.644 244.548V244.548ZM590.115 250.502C589.222 249.429 588.331 248.242 587.46 246.965C588.305 247.002 589.167 247.021 590.042 247.021C590.942 247.021 591.831 246.998 592.706 246.955C591.847 248.255 590.979 249.443 590.115 250.502ZM599.113 239.408C599.703 240.905 600.2 242.352 600.595 243.729C599.316 244.054 597.934 244.316 596.479 244.51C596.945 243.687 597.397 242.854 597.834 242.011C598.277 241.154 598.704 240.286 599.113 239.408V239.408ZM596.2 240.962C595.532 242.255 594.826 243.523 594.083 244.765C592.774 244.869 591.421 244.922 590.042 244.922C588.669 244.922 587.333 244.875 586.047 244.782C585.285 243.543 584.565 242.273 583.89 240.974C583.217 239.682 582.589 238.361 582.007 237.016C582.588 235.67 583.214 234.349 583.884 233.056V233.057C584.554 231.763 585.268 230.498 586.024 229.265C587.336 229.154 588.682 229.097 590.042 229.097C591.409 229.097 592.756 229.155 594.068 229.266C594.817 230.498 595.526 231.758 596.194 233.045C596.867 234.335 597.501 235.65 598.097 236.986C597.507 238.336 596.875 239.663 596.201 240.962H596.2ZM600.09 217.529C601.567 218.478 602.142 222.303 601.214 227.32C601.153 227.647 601.086 227.973 601.015 228.297C599.184 227.827 597.196 227.477 595.115 227.259C593.902 225.337 592.646 223.59 591.384 222.077C591.715 221.722 592.053 221.377 592.399 221.041C595.657 217.885 598.702 216.639 600.09 217.529V217.529Z" fill="#3F3D56"/>
<path d="M590.042 232.579C592.219 232.579 593.983 234.543 593.983 236.966C593.983 239.388 592.219 241.352 590.042 241.352C587.866 241.352 586.101 239.388 586.101 236.966C586.101 234.543 587.866 232.579 590.042 232.579" fill="#53C1DE"/>
<path d="M760.62 44H512V166.423H760.62V44Z" fill="#3F3D56"/>
<path d="M575.028 85H554.363V87H575.028V85Z" fill="#50FA7B"/>
<path d="M602.926 85H582.261V87H602.926V85Z" fill="#50FA7B"/>
<path d="M643.222 104H622.557V106H643.222V104Z" fill="#50FA7B"/>
<path d="M672.153 104H651.488V106H672.153V104Z" fill="#50FA7B"/>
<path d="M672.153 85H610.158V87H672.153V85Z" fill="#50FA7B"/>
<path d="M615.325 104H554.363V106H615.325V104Z" fill="#50FA7B"/>
<path d="M615.325 123H554.363V125H615.325V123Z" fill="#50FA7B"/>
<path d="M672.153 123H628.757V125H672.153V123Z" fill="#50FA7B"/>
<path d="M548.68 94L540.931 85.5003L548.68 77L550.23 78.7005L544.031 85.5003L550.23 92.2995L548.68 94Z" fill="#50FA7B"/>
<path d="M691.269 133L689.719 131.3L695.917 124.499L689.719 117.7L691.269 116L699.018 124.499L691.269 133Z" fill="#50FA7B"/>
<path d="M683.934 115.817L679.582 132.558L681.572 133.261L685.924 116.52L683.934 115.817Z" fill="#50FA7B"/>
<path d="M716.9 54.6672C718.15 53.9594 719.744 53.9562 720.963 54.6672L739.625 65.1875C740.792 65.8437 741.573 67.1453 741.563 68.4906V89.5844C741.57 90.9859 740.713 92.3156 739.481 92.9594L720.919 103.431C720.284 103.782 719.567 103.957 718.841 103.936C718.116 103.916 717.41 103.703 716.795 103.317L711.225 100.098C710.845 99.8719 710.419 99.6922 710.15 99.325C710.388 99.0062 710.809 98.9656 711.153 98.825C711.928 98.5781 712.638 98.2 713.35 97.8C713.53 97.675 713.75 97.7219 713.922 97.8344L718.672 100.581C719.011 100.777 719.355 100.519 719.645 100.355L737.872 90.0687C738.097 89.9593 738.222 89.7219 738.203 89.475V68.5844C738.228 68.3031 738.067 68.0469 737.813 67.9328L719.297 57.5062C719.19 57.4324 719.064 57.3928 718.934 57.3925C718.804 57.3922 718.677 57.4313 718.57 57.5047L700.081 67.9531C699.831 68.0672 699.659 68.3203 699.691 68.6015V89.4922C699.669 89.739 699.8 89.9719 700.027 90.0781L704.967 92.8672C705.895 93.3672 707.034 93.6484 708.056 93.2812C708.503 93.1127 708.888 92.8115 709.16 92.418C709.431 92.0245 709.575 91.5575 709.573 91.0797L709.578 70.314C709.556 70.0062 709.847 69.7515 710.145 69.7828H712.52C712.833 69.775 713.078 70.1062 713.036 70.4156L713.031 91.3125C713.033 93.1687 712.27 95.1875 710.553 96.0984C708.438 97.1922 705.822 96.9625 703.731 95.9109L698.419 92.9734C697.169 92.3484 696.33 90.9984 696.338 89.5984V68.5047C696.343 67.8191 696.531 67.1474 696.883 66.5592C697.236 65.9709 697.739 65.4876 698.341 65.1594L716.9 54.6672ZM722.281 69.289C724.98 69.1328 727.869 69.1859 730.297 70.5156C732.177 71.5344 733.219 73.6719 733.253 75.7625C733.2 76.0437 732.906 76.2 732.638 76.1797C731.856 76.1781 731.072 76.1906 730.288 76.175C729.955 76.1875 729.763 75.8812 729.72 75.5875C729.495 74.5875 728.95 73.5984 728.009 73.1156C726.566 72.3922 724.891 72.4281 723.316 72.4437C722.166 72.5062 720.93 72.6047 719.956 73.2797C719.206 73.7922 718.981 74.8422 719.248 75.6578C719.498 76.2562 720.191 76.4484 720.755 76.6265C724.008 77.4765 727.453 77.4078 730.645 78.5125C731.966 78.9687 733.258 79.8562 733.711 81.239C734.302 83.0922 734.044 85.3078 732.727 86.7953C731.658 88.0203 730.102 88.6703 728.547 89.0484C726.48 89.5093 724.336 89.5203 722.238 89.314C720.264 89.089 718.211 88.5703 716.688 87.2265C715.384 86.0953 714.75 84.3328 714.813 82.6328C714.828 82.3453 715.114 82.1453 715.391 82.1687H717.734C718.05 82.1469 718.281 82.4187 718.297 82.7156C718.442 83.6531 718.8 84.6687 719.631 85.2156C721.234 86.25 723.245 86.1781 725.08 86.2078C726.6 86.1406 728.306 86.1203 729.548 85.114C730.205 84.5406 730.397 83.5828 730.22 82.7578C730.028 82.0609 729.283 81.7375 728.658 81.5078C725.447 80.4922 721.963 80.8609 718.783 79.7109C717.492 79.2547 716.244 78.3922 715.748 77.0656C715.056 75.1906 715.373 72.8672 716.831 71.4297C718.238 70 720.3 69.4484 722.253 69.2515L722.281 69.289Z" fill="#50FA7B"/>
<path d="M900.62 202H652V324.423H900.62V202Z" fill="#3F3D56"/>
<path d="M715.028 243H694.363V245H715.028V243Z" fill="#6C63FF"/>
<path d="M742.926 243H722.261V245H742.926V243Z" fill="#6C63FF"/>
<path d="M783.222 262H762.557V264H783.222V262Z" fill="#6C63FF"/>
<path d="M812.153 262H791.488V264H812.153V262Z" fill="#6C63FF"/>
<path d="M812.153 243H750.158V245H812.153V243Z" fill="#6C63FF"/>
<path d="M755.325 262H694.363V264H755.325V262Z" fill="#6C63FF"/>
<path d="M755.325 281H694.363V283H755.325V281Z" fill="#6C63FF"/>
<path d="M812.153 281H768.757V283H812.153V281Z" fill="#6C63FF"/>
<path d="M688.68 252L680.931 243.5L688.68 235L690.23 236.701L684.031 243.5L690.23 250.299L688.68 252Z" fill="#6C63FF"/>
<path d="M831.269 291L829.719 289.3L835.917 282.499L829.719 275.7L831.269 274L839.018 282.499L831.269 291Z" fill="#6C63FF"/>
<path d="M823.934 273.817L819.582 290.558L821.572 291.261L825.924 274.52L823.934 273.817Z" fill="#6C63FF"/>
<path d="M872.261 229.32C871.791 229.141 871.318 228.975 870.84 228.822C870.92 228.464 870.993 228.105 871.06 227.744C872.135 221.933 871.432 217.252 869.031 215.712C866.729 214.234 862.964 215.775 859.161 219.458C858.787 219.822 858.42 220.196 858.063 220.58C857.823 220.325 857.579 220.074 857.331 219.828C853.346 215.89 849.352 214.23 846.953 215.776C844.653 217.258 843.972 221.658 844.94 227.165C845.036 227.71 845.145 228.253 845.266 228.792C844.701 228.97 844.155 229.161 843.633 229.363C838.961 231.177 835.977 234.018 835.977 236.966C835.977 240.01 839.18 243.063 844.047 244.915C844.441 245.064 844.839 245.203 845.24 245.33C845.11 245.911 844.994 246.496 844.893 247.084C843.97 252.495 844.691 256.791 846.985 258.264C849.354 259.784 853.331 258.221 857.203 254.454C857.509 254.156 857.816 253.84 858.124 253.509C858.511 253.925 858.909 254.329 859.316 254.721C863.067 258.313 866.771 259.764 869.063 258.287C871.43 256.762 872.199 252.146 871.201 246.531C871.124 246.102 871.036 245.664 870.936 245.218C871.215 245.126 871.489 245.031 871.757 244.933C876.816 243.067 880.107 240.051 880.107 236.966C880.107 234.008 877.027 231.147 872.261 229.32V229.32Z" fill="#6C63FF"/>
<path d="M871.164 242.941C870.922 243.03 870.675 243.116 870.422 243.199C869.864 241.231 869.11 239.138 868.188 236.976C869.068 234.865 869.793 232.799 870.336 230.844C870.787 230.99 871.225 231.143 871.647 231.305C875.731 232.869 878.222 235.183 878.222 236.966C878.222 238.865 875.532 241.33 871.164 242.941H871.164ZM869.351 246.938C869.793 249.422 869.856 251.667 869.563 253.422C869.3 254.999 868.772 256.05 868.118 256.471C866.728 257.367 863.753 256.202 860.546 253.13C860.178 252.778 859.808 252.402 859.436 252.004C860.68 250.49 861.923 248.73 863.135 246.776C865.269 246.565 867.284 246.22 869.112 245.75C869.202 246.155 869.282 246.551 869.351 246.938V246.938ZM851.022 256.316C849.663 256.85 848.581 256.865 847.927 256.446C846.535 255.552 845.956 252.102 846.746 247.475C846.839 246.928 846.947 246.384 847.068 245.844C848.875 246.289 850.876 246.609 853.015 246.802C854.236 248.715 855.514 250.473 856.803 252.012C856.529 252.307 856.249 252.594 855.962 252.874C854.25 254.54 852.534 255.722 851.022 256.316H851.022ZM844.656 242.929C842.504 242.11 840.727 241.047 839.509 239.886C838.415 238.842 837.862 237.806 837.862 236.966C837.862 235.177 840.258 232.896 844.254 231.345C844.755 231.151 845.262 230.974 845.773 230.813C846.325 232.812 847.049 234.903 847.923 237.017C847.038 239.162 846.303 241.286 845.746 243.309C845.38 243.192 845.017 243.066 844.656 242.929V242.929ZM846.79 226.762C845.961 222.044 846.512 218.485 847.898 217.592C849.374 216.64 852.639 217.997 856.079 221.398C856.299 221.615 856.52 221.843 856.742 222.078C855.46 223.61 854.193 225.355 852.982 227.256C850.907 227.47 848.92 227.814 847.094 228.275C846.981 227.773 846.88 227.269 846.79 226.762V226.762ZM865.826 231.994C865.395 231.164 864.947 230.345 864.484 229.537C865.892 229.735 867.241 229.998 868.508 230.32C868.128 231.677 867.654 233.095 867.095 234.55C866.688 233.688 866.264 232.836 865.826 231.994V231.994ZM858.063 223.578C858.933 224.626 859.804 225.797 860.66 227.067C858.923 226.976 857.182 226.975 855.444 227.066C856.302 225.807 857.18 224.638 858.063 223.578V223.578ZM850.251 232.008C849.818 232.844 849.402 233.691 849.005 234.548C848.456 233.099 847.986 231.674 847.603 230.298C848.862 229.984 850.205 229.728 851.604 229.533C851.135 230.346 850.684 231.171 850.251 232.008V232.008ZM851.644 244.548C850.198 244.368 848.835 244.125 847.577 243.82C847.966 242.42 848.446 240.964 849.007 239.483C849.406 240.342 849.823 241.189 850.258 242.025C850.702 242.878 851.164 243.719 851.644 244.548V244.548ZM858.115 250.502C857.222 249.429 856.331 248.242 855.46 246.965C856.305 247.002 857.167 247.021 858.042 247.021C858.942 247.021 859.831 246.998 860.706 246.955C859.847 248.255 858.979 249.443 858.115 250.502ZM867.113 239.408C867.703 240.905 868.2 242.352 868.595 243.729C867.316 244.054 865.934 244.316 864.479 244.51C864.945 243.687 865.397 242.854 865.834 242.011C866.277 241.154 866.704 240.286 867.113 239.408V239.408ZM864.2 240.962C863.532 242.255 862.826 243.523 862.083 244.765C860.774 244.869 859.421 244.922 858.042 244.922C856.669 244.922 855.333 244.875 854.047 244.782C853.285 243.543 852.565 242.273 851.89 240.974C851.217 239.682 850.589 238.361 850.007 237.016C850.588 235.67 851.214 234.349 851.884 233.056V233.057C852.554 231.763 853.268 230.498 854.024 229.265C855.336 229.154 856.682 229.097 858.042 229.097C859.409 229.097 860.756 229.155 862.068 229.266C862.817 230.498 863.526 231.758 864.194 233.045C864.867 234.335 865.501 235.65 866.097 236.986C865.507 238.336 864.875 239.663 864.201 240.962H864.2ZM868.09 217.529C869.567 218.478 870.142 222.303 869.214 227.32C869.153 227.647 869.086 227.973 869.015 228.297C867.184 227.827 865.196 227.477 863.115 227.259C861.902 225.337 860.646 223.59 859.384 222.077C859.715 221.722 860.053 221.377 860.399 221.041C863.657 217.885 866.702 216.639 868.09 217.529V217.529Z" fill="#3F3D56"/>
<path d="M858.042 232.579C860.219 232.579 861.983 234.543 861.983 236.966C861.983 239.388 860.219 241.352 858.042 241.352C855.866 241.352 854.101 239.388 854.101 236.966C854.101 234.543 855.866 232.579 858.042 232.579" fill="#6C63FF"/>
<g clip-path="url(#clip0)">
<path d="M1140.51 172.665V197.441C1140.51 197.67 1140.42 197.889 1140.25 198.051C1140.09 198.213 1139.88 198.304 1139.65 198.305H1139.04V327.372C1139.04 330.944 1137.63 334.369 1135.12 336.895C1132.61 339.42 1129.21 340.839 1125.66 340.839H1045.53C1043.77 340.839 1042.03 340.491 1040.41 339.814C1038.79 339.137 1037.31 338.145 1036.07 336.894C1034.83 335.644 1033.84 334.159 1033.17 332.525C1032.5 330.892 1032.15 329.141 1032.15 327.372V202.832H1031.71C1031.55 202.832 1031.39 202.768 1031.28 202.654C1031.17 202.54 1031.1 202.386 1031.1 202.224V188.124C1031.1 188.043 1031.12 187.964 1031.15 187.89C1031.18 187.816 1031.22 187.748 1031.28 187.691C1031.34 187.635 1031.4 187.59 1031.48 187.559C1031.55 187.528 1031.63 187.512 1031.71 187.512H1032.15V182.201H1031.71C1031.54 182.2 1031.38 182.133 1031.26 182.012C1031.14 181.892 1031.07 181.729 1031.07 181.56V167.652C1031.07 167.483 1031.14 167.321 1031.26 167.201C1031.38 167.082 1031.54 167.014 1031.71 167.014H1032.15V159.764H1031.7C1031.62 159.764 1031.55 159.749 1031.48 159.721C1031.41 159.692 1031.35 159.651 1031.3 159.598C1031.25 159.546 1031.21 159.483 1031.18 159.415C1031.15 159.346 1031.14 159.272 1031.14 159.198V151.608C1031.14 151.458 1031.19 151.313 1031.3 151.206C1031.41 151.1 1031.55 151.039 1031.7 151.039H1032.15V135.67C1032.15 132.1 1033.56 128.675 1036.07 126.151C1038.58 123.626 1041.98 122.207 1045.53 122.207H1125.66C1129.21 122.207 1132.61 123.626 1135.12 126.15C1137.63 128.675 1139.04 132.099 1139.04 135.67V171.801H1139.65C1139.88 171.802 1140.09 171.893 1140.25 172.055C1140.42 172.217 1140.51 172.436 1140.51 172.665Z" fill="#3F3D56"/>
<path d="M1089.77 129.306H1076.13C1075.58 129.306 1075.13 129.705 1075.13 130.198V131.253C1075.13 131.745 1075.58 132.145 1076.13 132.145H1089.77C1090.32 132.145 1090.76 131.745 1090.76 131.253V130.198C1090.76 129.705 1090.32 129.306 1089.77 129.306Z" fill="#E6E8EC"/>
<path d="M1094.32 132.145C1095.49 132.145 1096.45 131.509 1096.45 130.725C1096.45 129.941 1095.49 129.306 1094.32 129.306C1093.14 129.306 1092.18 129.941 1092.18 130.725C1092.18 131.509 1093.14 132.145 1094.32 132.145Z" fill="#E6E8EC"/>
<path d="M1131.98 137.734V325.316C1131.98 326.536 1131.72 327.741 1131.21 328.848C1130.7 329.955 1129.96 330.938 1129.04 331.728C1127.52 333.027 1125.6 333.741 1123.61 333.741H1047.97C1046.62 333.743 1045.3 333.417 1044.1 332.792C1043.82 332.647 1043.55 332.486 1043.29 332.308C1042.15 331.536 1041.22 330.495 1040.58 329.276C1039.94 328.056 1039.6 326.697 1039.6 325.316V137.734C1039.6 136.627 1039.82 135.531 1040.24 134.509C1040.66 133.486 1041.27 132.557 1042.05 131.774C1042.83 130.992 1043.75 130.371 1044.77 129.947C1045.78 129.524 1046.87 129.306 1047.97 129.306H1059.29V130.768C1059.29 132.609 1060.02 134.374 1061.31 135.675C1062.6 136.977 1064.36 137.708 1066.18 137.708H1104.65C1106.48 137.708 1108.23 136.977 1109.53 135.675C1110.82 134.374 1111.54 132.609 1111.54 130.768V129.306H1123.61C1124.71 129.305 1125.8 129.523 1126.81 129.947C1127.83 130.37 1128.75 130.991 1129.53 131.774C1130.31 132.556 1130.92 133.486 1131.34 134.508C1131.76 135.531 1131.98 136.627 1131.98 137.734Z" fill="#F8F8F2" fill-opacity="0.75"/>
<path d="M1048.43 157.021H1047.96V155.378H1046.17V157.021H1045.7V153.466H1046.17V154.994H1047.96V153.466H1048.43V157.021ZM1050.29 157.07C1049.93 157.07 1049.64 156.952 1049.41 156.718C1049.19 156.482 1049.08 156.167 1049.08 155.773V155.69C1049.08 155.428 1049.13 155.195 1049.22 154.989C1049.33 154.783 1049.47 154.622 1049.64 154.506C1049.83 154.389 1050.02 154.33 1050.23 154.33C1050.57 154.33 1050.84 154.443 1051.03 154.67C1051.22 154.896 1051.32 155.22 1051.32 155.641V155.829H1049.53C1049.53 156.09 1049.61 156.301 1049.75 156.462C1049.9 156.621 1050.09 156.701 1050.31 156.701C1050.47 156.701 1050.61 156.668 1050.72 156.603C1050.83 156.538 1050.92 156.452 1051.01 156.344L1051.28 156.559C1051.06 156.899 1050.73 157.07 1050.29 157.07ZM1050.23 154.701C1050.05 154.701 1049.9 154.768 1049.77 154.902C1049.65 155.033 1049.57 155.219 1049.54 155.458H1050.87V155.424C1050.85 155.195 1050.79 155.017 1050.68 154.892C1050.57 154.765 1050.42 154.701 1050.23 154.701ZM1052.33 157.021H1051.88V153.271H1052.33V157.021ZM1053.55 157.021H1053.1V153.271H1053.55V157.021ZM1054.15 155.676C1054.15 155.417 1054.2 155.184 1054.31 154.977C1054.41 154.771 1054.55 154.611 1054.73 154.499C1054.91 154.386 1055.12 154.33 1055.35 154.33C1055.71 154.33 1056 154.455 1056.22 154.704C1056.45 154.953 1056.56 155.284 1056.56 155.697V155.729C1056.56 155.986 1056.51 156.217 1056.41 156.423C1056.31 156.626 1056.17 156.785 1055.99 156.899C1055.81 157.013 1055.6 157.07 1055.36 157.07C1055 157.07 1054.71 156.945 1054.49 156.696C1054.26 156.447 1054.15 156.117 1054.15 155.707V155.676ZM1054.61 155.729C1054.61 156.022 1054.68 156.257 1054.81 156.435C1054.95 156.612 1055.13 156.701 1055.36 156.701C1055.59 156.701 1055.77 156.611 1055.9 156.432C1056.04 156.252 1056.11 155.999 1056.11 155.676C1056.11 155.386 1056.04 155.151 1055.9 154.972C1055.76 154.792 1055.58 154.701 1055.35 154.701C1055.13 154.701 1054.95 154.79 1054.81 154.967C1054.68 155.145 1054.61 155.399 1054.61 155.729ZM1059.2 155.9L1059.27 156.369L1059.37 155.947L1060.07 153.466H1060.47L1061.16 155.947L1061.25 156.376L1061.33 155.898L1061.88 153.466H1062.35L1061.49 157.021H1061.06L1060.33 154.43L1060.27 154.159L1060.22 154.43L1059.46 157.021H1059.03L1058.17 153.466H1058.64L1059.2 155.9ZM1062.61 155.676C1062.61 155.417 1062.66 155.184 1062.76 154.977C1062.86 154.771 1063 154.611 1063.18 154.499C1063.36 154.386 1063.57 154.33 1063.8 154.33C1064.16 154.33 1064.45 154.455 1064.68 154.704C1064.9 154.953 1065.01 155.284 1065.01 155.697V155.729C1065.01 155.986 1064.96 156.217 1064.86 156.423C1064.76 156.626 1064.62 156.785 1064.44 156.899C1064.26 157.013 1064.05 157.07 1063.81 157.07C1063.45 157.07 1063.16 156.945 1062.94 156.696C1062.72 156.447 1062.61 156.117 1062.61 155.707V155.676ZM1063.06 155.729C1063.06 156.022 1063.13 156.257 1063.26 156.435C1063.4 156.612 1063.58 156.701 1063.81 156.701C1064.04 156.701 1064.22 156.611 1064.36 156.432C1064.49 156.252 1064.56 155.999 1064.56 155.676C1064.56 155.386 1064.49 155.151 1064.35 154.972C1064.21 154.792 1064.03 154.701 1063.8 154.701C1063.58 154.701 1063.4 154.79 1063.27 154.967C1063.13 155.145 1063.06 155.399 1063.06 155.729ZM1066.85 154.784C1066.79 154.773 1066.71 154.767 1066.63 154.767C1066.34 154.767 1066.13 154.893 1066.03 155.146V157.021H1065.58V154.379H1066.02L1066.02 154.684C1066.17 154.448 1066.38 154.33 1066.65 154.33C1066.74 154.33 1066.81 154.342 1066.85 154.364V154.784ZM1067.76 157.021H1067.31V153.271H1067.76V157.021ZM1068.38 155.678C1068.38 155.273 1068.47 154.947 1068.67 154.701C1068.86 154.454 1069.11 154.33 1069.42 154.33C1069.73 154.33 1069.97 154.436 1070.15 154.648V153.271H1070.61V157.021H1070.19L1070.17 156.738C1069.99 156.959 1069.74 157.07 1069.42 157.07C1069.11 157.07 1068.86 156.944 1068.67 156.694C1068.47 156.443 1068.38 156.116 1068.38 155.712V155.678ZM1068.83 155.729C1068.83 156.029 1068.89 156.263 1069.01 156.432C1069.14 156.602 1069.31 156.686 1069.53 156.686C1069.81 156.686 1070.02 156.558 1070.15 156.301V155.087C1070.02 154.838 1069.81 154.714 1069.53 154.714C1069.31 154.714 1069.14 154.799 1069.01 154.97C1068.89 155.141 1068.83 155.394 1068.83 155.729ZM1071.29 157.729L1071.04 157.553C1071.19 157.34 1071.27 157.12 1071.28 156.894V156.486H1071.72V156.84C1071.72 157.004 1071.68 157.169 1071.6 157.333C1071.52 157.498 1071.42 157.629 1071.29 157.729Z" fill="black" fill-opacity="0.25"/>
<path d="M1046.93 168.021H1046.09V161.622H1046.93V168.021ZM1048.41 163.424L1047.95 163.108C1048.22 162.727 1048.36 162.325 1048.37 161.904V161.271H1049.17V161.842C1049.17 162.135 1049.1 162.428 1048.95 162.721C1048.81 163.011 1048.63 163.245 1048.41 163.424ZM1050.83 163.266L1050.85 163.793C1051.2 163.383 1051.67 163.178 1052.26 163.178C1052.93 163.178 1053.38 163.433 1053.62 163.943C1053.78 163.714 1053.98 163.53 1054.24 163.389C1054.49 163.248 1054.79 163.178 1055.14 163.178C1056.18 163.178 1056.71 163.73 1056.73 164.835V168.021H1055.91V164.883C1055.91 164.543 1055.84 164.29 1055.68 164.123C1055.53 163.953 1055.27 163.868 1054.9 163.868C1054.6 163.868 1054.35 163.959 1054.15 164.14C1053.95 164.319 1053.83 164.561 1053.8 164.865V168.021H1052.98V164.905C1052.98 164.214 1052.65 163.868 1051.97 163.868C1051.44 163.868 1051.07 164.095 1050.87 164.549V168.021H1050.06V163.266H1050.83ZM1061.17 167.331H1064.2V168.021H1060.32V161.622H1061.17V167.331ZM1067.01 168.109C1066.36 168.109 1065.84 167.898 1065.43 167.476C1065.03 167.051 1064.83 166.484 1064.83 165.775V165.626C1064.83 165.154 1064.92 164.734 1065.09 164.364C1065.28 163.992 1065.53 163.702 1065.85 163.494C1066.18 163.283 1066.53 163.178 1066.91 163.178C1067.52 163.178 1068 163.382 1068.35 163.789C1068.69 164.196 1068.86 164.779 1068.86 165.538V165.876H1065.64C1065.65 166.345 1065.79 166.724 1066.05 167.014C1066.31 167.301 1066.65 167.445 1067.05 167.445C1067.34 167.445 1067.58 167.386 1067.78 167.269C1067.98 167.152 1068.15 166.997 1068.3 166.803L1068.8 167.19C1068.4 167.802 1067.8 168.109 1067.01 168.109ZM1066.91 163.846C1066.58 163.846 1066.3 163.966 1066.08 164.206C1065.86 164.444 1065.72 164.778 1065.67 165.208H1068.05V165.147C1068.02 164.734 1067.91 164.414 1067.71 164.189C1067.51 163.96 1067.25 163.846 1066.91 163.846ZM1072.74 168.021C1072.69 167.927 1072.66 167.76 1072.63 167.52C1072.25 167.912 1071.8 168.109 1071.27 168.109C1070.8 168.109 1070.42 167.977 1070.12 167.713C1069.82 167.447 1069.67 167.11 1069.67 166.702C1069.67 166.207 1069.86 165.823 1070.23 165.551C1070.61 165.276 1071.14 165.138 1071.82 165.138H1072.61V164.764C1072.61 164.48 1072.53 164.255 1072.36 164.088C1072.19 163.918 1071.94 163.833 1071.61 163.833C1071.32 163.833 1071.07 163.906 1070.88 164.052C1070.68 164.199 1070.58 164.376 1070.58 164.584H1069.77C1069.77 164.347 1069.85 164.118 1070.02 163.899C1070.19 163.676 1070.42 163.5 1070.7 163.371C1070.99 163.242 1071.31 163.178 1071.66 163.178C1072.2 163.178 1072.63 163.316 1072.94 163.591C1073.25 163.863 1073.42 164.24 1073.43 164.72V166.909C1073.43 167.345 1073.48 167.693 1073.59 167.95V168.021H1072.74ZM1071.39 167.401C1071.65 167.401 1071.89 167.335 1072.12 167.203C1072.35 167.072 1072.51 166.9 1072.61 166.689V165.714H1071.98C1070.98 165.714 1070.48 166.005 1070.48 166.588C1070.48 166.843 1070.57 167.042 1070.74 167.186C1070.91 167.329 1071.13 167.401 1071.39 167.401ZM1075.47 163.266L1075.5 163.863C1075.86 163.406 1076.33 163.178 1076.92 163.178C1077.93 163.178 1078.43 163.745 1078.44 164.879V168.021H1077.63V164.874C1077.63 164.531 1077.55 164.278 1077.39 164.114C1077.24 163.95 1077 163.868 1076.67 163.868C1076.41 163.868 1076.18 163.938 1075.98 164.079C1075.78 164.219 1075.63 164.404 1075.51 164.633V168.021H1074.7V163.266H1075.47ZM1079.47 165.604C1079.47 164.874 1079.64 164.288 1079.99 163.846C1080.33 163.401 1080.79 163.178 1081.35 163.178C1081.9 163.178 1082.34 163.368 1082.67 163.749V161.271H1083.48V168.021H1082.73L1082.69 167.511C1082.37 167.909 1081.92 168.109 1081.34 168.109C1080.79 168.109 1080.34 167.883 1079.99 167.432C1079.64 166.981 1079.47 166.392 1079.47 165.665V165.604ZM1080.28 165.696C1080.28 166.235 1080.39 166.657 1080.62 166.962C1080.84 167.266 1081.15 167.419 1081.54 167.419C1082.05 167.419 1082.43 167.187 1082.67 166.724V164.54C1082.43 164.092 1082.05 163.868 1081.55 163.868C1081.15 163.868 1080.84 164.022 1080.62 164.329C1080.39 164.637 1080.28 165.092 1080.28 165.696ZM1087.05 163.995C1086.92 163.975 1086.79 163.965 1086.65 163.965C1086.11 163.965 1085.75 164.192 1085.56 164.646V168.021H1084.75V163.266H1085.54L1085.55 163.815C1085.82 163.39 1086.2 163.178 1086.69 163.178C1086.84 163.178 1086.96 163.198 1087.05 163.239V163.995ZM1087.49 165.599C1087.49 165.134 1087.58 164.715 1087.77 164.342C1087.95 163.97 1088.21 163.683 1088.53 163.481C1088.86 163.279 1089.23 163.178 1089.65 163.178C1090.3 163.178 1090.82 163.402 1091.22 163.85C1091.62 164.299 1091.82 164.895 1091.82 165.639V165.696C1091.82 166.159 1091.73 166.575 1091.55 166.944C1091.38 167.31 1091.13 167.596 1090.79 167.801C1090.47 168.006 1090.09 168.109 1089.66 168.109C1089.02 168.109 1088.49 167.884 1088.09 167.436C1087.69 166.988 1087.49 166.395 1087.49 165.656V165.599ZM1088.31 165.696C1088.31 166.223 1088.43 166.647 1088.68 166.966C1088.92 167.285 1089.25 167.445 1089.66 167.445C1090.07 167.445 1090.4 167.284 1090.64 166.962C1090.89 166.636 1091.01 166.182 1091.01 165.599C1091.01 165.078 1090.88 164.656 1090.64 164.334C1090.39 164.009 1090.06 163.846 1089.65 163.846C1089.25 163.846 1088.93 164.006 1088.68 164.325C1088.43 164.644 1088.31 165.101 1088.31 165.696Z" fill="#44475A"/>
<rect x="1045.28" y="178.995" width="81.0103" height="59.6269" rx="7" fill="#3F3D56"/>
<rect x="1097.87" y="217.326" width="22.7397" height="12.7772" rx="4" fill="#6C63FF"/>
<path d="M1101.69 224.673H1103.31V225.166H1101.07V221.611H1101.69V224.673ZM1103.61 223.821C1103.61 223.562 1103.66 223.329 1103.76 223.122C1103.87 222.914 1104.01 222.755 1104.2 222.644C1104.38 222.532 1104.59 222.475 1104.84 222.475C1105.19 222.475 1105.48 222.59 1105.7 222.82C1105.93 223.049 1106.05 223.353 1106.06 223.733L1106.07 223.872C1106.07 224.132 1106.02 224.365 1105.91 224.57C1105.82 224.775 1105.67 224.934 1105.49 225.046C1105.3 225.158 1105.08 225.215 1104.84 225.215C1104.47 225.215 1104.17 225.091 1103.94 224.844C1103.72 224.595 1103.61 224.263 1103.61 223.85V223.821ZM1104.2 223.872C1104.2 224.144 1104.26 224.357 1104.37 224.512C1104.48 224.664 1104.64 224.741 1104.84 224.741C1105.04 224.741 1105.2 224.663 1105.31 224.507C1105.42 224.35 1105.48 224.122 1105.48 223.821C1105.48 223.554 1105.42 223.342 1105.3 223.186C1105.19 223.03 1105.03 222.951 1104.84 222.951C1104.64 222.951 1104.49 223.029 1104.37 223.183C1104.26 223.336 1104.2 223.566 1104.2 223.872ZM1106.46 223.825C1106.46 223.415 1106.56 223.088 1106.75 222.844C1106.95 222.598 1107.2 222.475 1107.52 222.475C1107.82 222.475 1108.06 222.58 1108.23 222.79L1108.26 222.524H1108.79V225.085C1108.79 225.432 1108.69 225.705 1108.47 225.906C1108.25 226.106 1107.96 226.206 1107.6 226.206C1107.4 226.206 1107.21 226.165 1107.03 226.084C1106.84 226.004 1106.7 225.899 1106.61 225.769L1106.89 225.412C1107.07 225.629 1107.3 225.737 1107.56 225.737C1107.76 225.737 1107.92 225.683 1108.03 225.576C1108.14 225.47 1108.2 225.314 1108.2 225.107V224.929C1108.03 225.119 1107.8 225.215 1107.52 225.215C1107.21 225.215 1106.95 225.092 1106.76 224.846C1106.56 224.6 1106.46 224.26 1106.46 223.825ZM1107.06 223.877C1107.06 224.142 1107.11 224.351 1107.22 224.504C1107.33 224.656 1107.48 224.731 1107.67 224.731C1107.91 224.731 1108.08 224.629 1108.2 224.424V223.262C1108.09 223.061 1107.91 222.961 1107.67 222.961C1107.48 222.961 1107.33 223.039 1107.22 223.193C1107.11 223.348 1107.06 223.576 1107.06 223.877ZM1110.04 225.166H1109.44V222.524H1110.04V225.166ZM1109.41 221.838C1109.41 221.747 1109.43 221.671 1109.49 221.611C1109.55 221.551 1109.63 221.521 1109.74 221.521C1109.85 221.521 1109.93 221.551 1109.99 221.611C1110.05 221.671 1110.08 221.747 1110.08 221.838C1110.08 221.928 1110.05 222.003 1109.99 222.063C1109.93 222.121 1109.85 222.151 1109.74 222.151C1109.63 222.151 1109.55 222.121 1109.49 222.063C1109.43 222.003 1109.41 221.928 1109.41 221.838ZM1111.23 222.524L1111.25 222.829C1111.45 222.593 1111.7 222.475 1112.02 222.475C1112.57 222.475 1112.85 222.79 1112.86 223.42V225.166H1112.27V223.454C1112.27 223.287 1112.23 223.163 1112.16 223.083C1112.09 223.002 1111.97 222.961 1111.8 222.961C1111.56 222.961 1111.39 223.069 1111.27 223.286V225.166H1110.68V222.524H1111.23Z" fill="#F8F8F2" fill-opacity="0.75"/>
<path d="M1059.95 194.984L1061.26 188.562H1062.73L1060.76 197.093H1059.35L1057.72 190.865L1056.06 197.093H1054.64L1052.67 188.562H1054.14L1055.47 194.972L1057.1 188.562H1058.34L1059.95 194.984ZM1066.28 197.21C1065.38 197.21 1064.65 196.927 1064.09 196.361C1063.53 195.791 1063.25 195.033 1063.25 194.087V193.912C1063.25 193.279 1063.37 192.714 1063.61 192.218C1063.86 191.718 1064.2 191.33 1064.64 191.052C1065.08 190.775 1065.58 190.636 1066.12 190.636C1066.98 190.636 1067.65 190.912 1068.12 191.462C1068.59 192.013 1068.83 192.792 1068.83 193.8V194.375H1064.68C1064.73 194.898 1064.9 195.312 1065.2 195.617C1065.51 195.921 1065.9 196.074 1066.37 196.074C1067.02 196.074 1067.55 195.81 1067.96 195.283L1068.73 196.015C1068.47 196.394 1068.13 196.689 1067.71 196.9C1067.28 197.107 1066.81 197.21 1066.28 197.21ZM1066.11 191.779C1065.72 191.779 1065.41 191.916 1065.16 192.189C1064.93 192.462 1064.77 192.843 1064.71 193.332H1067.42V193.226C1067.39 192.75 1067.26 192.39 1067.04 192.148C1066.82 191.902 1066.51 191.779 1066.11 191.779ZM1071.45 197.093H1070.03V188.093H1071.45V197.093ZM1075.61 196.074C1075.97 196.074 1076.26 195.97 1076.5 195.763C1076.73 195.556 1076.86 195.3 1076.87 194.996H1078.21C1078.2 195.39 1078.07 195.759 1077.84 196.103C1077.61 196.443 1077.3 196.712 1076.91 196.912C1076.51 197.111 1076.09 197.21 1075.63 197.21C1074.74 197.21 1074.04 196.923 1073.52 196.349C1073 195.775 1072.74 194.982 1072.74 193.97V193.824C1072.74 192.859 1073 192.087 1073.51 191.509C1074.03 190.927 1074.73 190.636 1075.62 190.636C1076.38 190.636 1076.99 190.857 1077.46 191.298C1077.94 191.736 1078.19 192.312 1078.21 193.027H1076.87C1076.86 192.664 1076.73 192.365 1076.5 192.13C1076.27 191.896 1075.97 191.779 1075.61 191.779C1075.15 191.779 1074.79 191.947 1074.54 192.283C1074.29 192.615 1074.17 193.121 1074.16 193.8V194.029C1074.16 194.716 1074.29 195.23 1074.53 195.57C1074.78 195.906 1075.14 196.074 1075.61 196.074ZM1079.02 193.865C1079.02 193.244 1079.14 192.685 1079.39 192.189C1079.64 191.689 1079.98 191.306 1080.43 191.041C1080.87 190.771 1081.38 190.636 1081.96 190.636C1082.82 190.636 1083.51 190.912 1084.04 191.462C1084.58 192.013 1084.87 192.744 1084.91 193.654L1084.92 193.988C1084.92 194.613 1084.79 195.171 1084.55 195.664C1084.31 196.156 1083.97 196.537 1083.52 196.806C1083.08 197.076 1082.56 197.21 1081.97 197.21C1081.08 197.21 1080.36 196.914 1079.82 196.32C1079.29 195.722 1079.02 194.927 1079.02 193.935V193.865ZM1080.45 193.988C1080.45 194.64 1080.58 195.152 1080.85 195.523C1081.12 195.89 1081.49 196.074 1081.97 196.074C1082.45 196.074 1082.83 195.886 1083.09 195.511C1083.36 195.136 1083.5 194.587 1083.5 193.865C1083.5 193.224 1083.36 192.716 1083.08 192.341C1082.81 191.966 1082.44 191.779 1081.96 191.779C1081.5 191.779 1081.13 191.964 1080.86 192.335C1080.58 192.703 1080.45 193.253 1080.45 193.988ZM1087.46 190.753L1087.5 191.416C1087.95 190.896 1088.55 190.636 1089.33 190.636C1090.18 190.636 1090.76 190.96 1091.07 191.609C1091.53 190.96 1092.18 190.636 1093.01 190.636C1093.71 190.636 1094.23 190.83 1094.57 191.216C1094.92 191.603 1095.09 192.173 1095.1 192.927V197.093H1093.68V192.968C1093.68 192.566 1093.59 192.271 1093.41 192.083C1093.24 191.896 1092.95 191.802 1092.54 191.802C1092.21 191.802 1091.95 191.89 1091.74 192.066C1091.54 192.238 1091.4 192.464 1091.31 192.746L1091.32 197.093H1089.9V192.921C1089.88 192.175 1089.5 191.802 1088.75 191.802C1088.18 191.802 1087.78 192.035 1087.54 192.5V197.093H1086.12V190.753H1087.46ZM1099.35 197.21C1098.45 197.21 1097.72 196.927 1097.16 196.361C1096.6 195.791 1096.32 195.033 1096.32 194.087V193.912C1096.32 193.279 1096.44 192.714 1096.68 192.218C1096.93 191.718 1097.27 191.33 1097.71 191.052C1098.15 190.775 1098.65 190.636 1099.19 190.636C1100.05 190.636 1100.72 190.912 1101.19 191.462C1101.66 192.013 1101.9 192.792 1101.9 193.8V194.375H1097.75C1097.8 194.898 1097.97 195.312 1098.28 195.617C1098.58 195.921 1098.97 196.074 1099.44 196.074C1100.09 196.074 1100.62 195.81 1101.03 195.283L1101.8 196.015C1101.54 196.394 1101.2 196.689 1100.78 196.9C1100.36 197.107 1099.88 197.21 1099.35 197.21ZM1099.18 191.779C1098.79 191.779 1098.48 191.916 1098.23 192.189C1098 192.462 1097.84 192.843 1097.78 193.332H1100.49V193.226C1100.46 192.75 1100.33 192.39 1100.11 192.148C1099.89 191.902 1099.58 191.779 1099.18 191.779ZM1053.26 211.093V202.562H1056.18C1057.15 202.562 1057.88 202.755 1058.38 203.142C1058.89 203.529 1059.14 204.105 1059.14 204.871C1059.14 205.261 1059.03 205.613 1058.82 205.925C1058.61 206.238 1058.3 206.48 1057.9 206.652C1058.36 206.777 1058.71 207.013 1058.96 207.361C1059.22 207.705 1059.35 208.119 1059.35 208.603C1059.35 209.404 1059.09 210.019 1058.57 210.449C1058.06 210.878 1057.33 211.093 1056.37 211.093H1053.26ZM1054.74 207.244V209.91H1056.39C1056.85 209.91 1057.21 209.794 1057.48 209.564C1057.74 209.333 1057.87 209.013 1057.87 208.603C1057.87 207.716 1057.42 207.263 1056.51 207.244H1054.74ZM1054.74 206.154H1056.19C1056.65 206.154 1057.01 206.05 1057.27 205.843C1057.53 205.632 1057.66 205.335 1057.66 204.953C1057.66 204.531 1057.54 204.226 1057.3 204.039C1057.06 203.851 1056.69 203.757 1056.18 203.757H1054.74V206.154ZM1064.48 211.093C1064.42 210.972 1064.36 210.775 1064.31 210.501C1063.86 210.974 1063.31 211.21 1062.65 211.21C1062.01 211.21 1061.49 211.029 1061.09 210.666C1060.69 210.302 1060.49 209.853 1060.49 209.318C1060.49 208.642 1060.74 208.125 1061.24 207.765C1061.74 207.402 1062.46 207.22 1063.39 207.22H1064.27V206.804C1064.27 206.476 1064.18 206.214 1063.99 206.019C1063.81 205.82 1063.53 205.72 1063.15 205.72C1062.83 205.72 1062.56 205.802 1062.36 205.966C1062.15 206.126 1062.05 206.332 1062.05 206.582H1060.62C1060.62 206.234 1060.74 205.91 1060.97 205.609C1061.2 205.304 1061.51 205.066 1061.91 204.894C1062.3 204.722 1062.75 204.636 1063.24 204.636C1063.98 204.636 1064.57 204.824 1065.01 205.199C1065.45 205.57 1065.68 206.093 1065.69 206.769V209.628C1065.69 210.199 1065.77 210.654 1065.93 210.994V211.093H1064.48ZM1062.91 210.068C1063.2 210.068 1063.46 210 1063.7 209.863C1063.95 209.726 1064.14 209.542 1064.27 209.312V208.117H1063.5C1062.97 208.117 1062.58 208.208 1062.31 208.392C1062.04 208.576 1061.91 208.835 1061.91 209.171C1061.91 209.445 1062 209.664 1062.18 209.828C1062.37 209.988 1062.61 210.068 1062.91 210.068ZM1069.79 210.074C1070.14 210.074 1070.44 209.97 1070.67 209.763C1070.91 209.556 1071.03 209.3 1071.05 208.996H1072.39C1072.37 209.39 1072.25 209.759 1072.02 210.103C1071.79 210.443 1071.48 210.712 1071.08 210.912C1070.69 211.111 1070.26 211.21 1069.8 211.21C1068.92 211.21 1068.21 210.923 1067.7 210.349C1067.18 209.775 1066.92 208.982 1066.92 207.97V207.824C1066.92 206.859 1067.17 206.087 1067.69 205.509C1068.2 204.927 1068.91 204.636 1069.8 204.636C1070.55 204.636 1071.17 204.857 1071.64 205.298C1072.12 205.736 1072.37 206.312 1072.39 207.027H1071.05C1071.03 206.664 1070.91 206.365 1070.67 206.13C1070.44 205.896 1070.15 205.779 1069.79 205.779C1069.33 205.779 1068.97 205.947 1068.72 206.283C1068.47 206.615 1068.34 207.121 1068.34 207.8V208.029C1068.34 208.716 1068.46 209.23 1068.71 209.57C1068.96 209.906 1069.32 210.074 1069.79 210.074ZM1075.52 208.375L1074.89 209.025V211.093H1073.47V202.093H1074.89V207.285L1075.34 206.728L1077.09 204.753H1078.8L1076.44 207.396L1079.05 211.093H1077.4L1075.52 208.375Z" fill="#F8F8F2" fill-opacity="0.75"/>
<rect x="1045.78" y="257.578" width="80.0103" height="14.6166" rx="3.5" stroke="#6C63FF"/>
<rect x="1045.78" y="281.712" width="80.0103" height="14.6166" rx="3.5" stroke="#6C63FF"/>
<rect x="1045.28" y="303.927" width="81.0103" height="15.6166" rx="4" fill="#6C63FF"/>
<path d="M1050.57 253.392H1049.11V254.486H1050.81V254.979H1048.49V251.425H1050.8V251.923H1049.11V252.904H1050.57V253.392ZM1052.41 253.707H1051.13V253.229H1052.41V253.707ZM1053.46 252.338L1053.47 252.614C1053.66 252.397 1053.91 252.289 1054.24 252.289C1054.59 252.289 1054.83 252.424 1054.96 252.694C1055.15 252.424 1055.42 252.289 1055.77 252.289C1056.06 252.289 1056.28 252.369 1056.42 252.531C1056.56 252.692 1056.64 252.929 1056.64 253.243V254.979H1056.05V253.261C1056.05 253.093 1056.01 252.97 1055.94 252.892C1055.86 252.814 1055.74 252.775 1055.57 252.775C1055.44 252.775 1055.33 252.811 1055.24 252.885C1055.16 252.956 1055.1 253.051 1055.06 253.168L1055.07 254.979H1054.47V253.241C1054.46 252.93 1054.31 252.775 1054 252.775C1053.76 252.775 1053.59 252.872 1053.49 253.065V254.979H1052.9V252.338H1053.46ZM1058.83 254.979C1058.8 254.929 1058.78 254.847 1058.76 254.733C1058.57 254.93 1058.34 255.028 1058.07 255.028C1057.8 255.028 1057.58 254.952 1057.42 254.801C1057.25 254.65 1057.16 254.463 1057.16 254.24C1057.16 253.958 1057.27 253.742 1057.48 253.593C1057.69 253.441 1057.99 253.366 1058.38 253.366H1058.74V253.192C1058.74 253.055 1058.7 252.946 1058.62 252.865C1058.55 252.782 1058.43 252.741 1058.28 252.741C1058.14 252.741 1058.03 252.775 1057.94 252.843C1057.86 252.91 1057.81 252.995 1057.81 253.099H1057.22C1057.22 252.955 1057.27 252.819 1057.36 252.694C1057.46 252.567 1057.59 252.468 1057.76 252.396C1057.92 252.325 1058.11 252.289 1058.31 252.289C1058.62 252.289 1058.87 252.367 1059.05 252.523C1059.23 252.678 1059.33 252.896 1059.33 253.178V254.369C1059.33 254.607 1059.37 254.796 1059.43 254.938V254.979H1058.83ZM1058.18 254.552C1058.29 254.552 1058.4 254.524 1058.51 254.467C1058.61 254.41 1058.69 254.333 1058.74 254.237V253.739H1058.42C1058.2 253.739 1058.03 253.777 1057.92 253.854C1057.81 253.93 1057.76 254.039 1057.76 254.178C1057.76 254.292 1057.8 254.384 1057.87 254.452C1057.95 254.519 1058.05 254.552 1058.18 254.552ZM1060.59 254.979H1059.99V252.338H1060.59V254.979ZM1059.96 251.652C1059.96 251.56 1059.98 251.485 1060.04 251.425C1060.1 251.364 1060.18 251.334 1060.29 251.334C1060.4 251.334 1060.48 251.364 1060.54 251.425C1060.6 251.485 1060.63 251.56 1060.63 251.652C1060.63 251.741 1060.6 251.816 1060.54 251.876C1060.48 251.935 1060.4 251.964 1060.29 251.964C1060.18 251.964 1060.1 251.935 1060.04 251.876C1059.98 251.816 1059.96 251.741 1059.96 251.652ZM1061.86 254.979H1061.27V251.229H1061.86V254.979Z" fill="#979798"/>
<path d="M1049.11 277.793V279.114H1048.49V275.559H1049.85C1050.25 275.559 1050.56 275.663 1050.79 275.869C1051.03 276.076 1051.14 276.35 1051.14 276.69C1051.14 277.038 1051.03 277.309 1050.8 277.503C1050.57 277.696 1050.25 277.793 1049.84 277.793H1049.11ZM1049.11 277.298H1049.85C1050.07 277.298 1050.24 277.246 1050.35 277.144C1050.47 277.04 1050.52 276.89 1050.52 276.695C1050.52 276.503 1050.47 276.35 1050.35 276.236C1050.23 276.12 1050.07 276.061 1049.86 276.057H1049.11V277.298ZM1053.18 279.114C1053.15 279.064 1053.13 278.981 1053.11 278.867C1052.92 279.064 1052.69 279.163 1052.42 279.163C1052.15 279.163 1051.93 279.087 1051.77 278.936C1051.6 278.784 1051.52 278.597 1051.52 278.374C1051.52 278.093 1051.62 277.877 1051.83 277.727C1052.04 277.576 1052.34 277.5 1052.73 277.5H1053.09V277.327C1053.09 277.19 1053.05 277.081 1052.98 277C1052.9 276.917 1052.78 276.875 1052.63 276.875C1052.49 276.875 1052.38 276.909 1052.29 276.978C1052.21 277.045 1052.16 277.13 1052.16 277.234H1051.57C1051.57 277.089 1051.62 276.954 1051.72 276.829C1051.81 276.702 1051.94 276.603 1052.11 276.531C1052.27 276.459 1052.46 276.424 1052.66 276.424C1052.97 276.424 1053.22 276.502 1053.4 276.658C1053.58 276.813 1053.68 277.031 1053.68 277.312V278.504C1053.68 278.741 1053.72 278.931 1053.78 279.073V279.114H1053.18ZM1052.53 278.687C1052.64 278.687 1052.75 278.658 1052.86 278.601C1052.96 278.544 1053.04 278.468 1053.09 278.372V277.874H1052.77C1052.55 277.874 1052.39 277.912 1052.27 277.989C1052.16 278.065 1052.11 278.173 1052.11 278.313C1052.11 278.427 1052.15 278.518 1052.22 278.587C1052.3 278.653 1052.4 278.687 1052.53 278.687ZM1055.79 278.396C1055.79 278.29 1055.74 278.21 1055.65 278.155C1055.57 278.099 1055.42 278.05 1055.22 278.008C1055.02 277.966 1054.85 277.912 1054.72 277.847C1054.42 277.704 1054.27 277.496 1054.27 277.224C1054.27 276.997 1054.37 276.806 1054.56 276.653C1054.75 276.5 1055 276.424 1055.29 276.424C1055.61 276.424 1055.86 276.502 1056.06 276.658C1056.25 276.814 1056.35 277.017 1056.35 277.266H1055.76C1055.76 277.152 1055.71 277.058 1055.63 276.983C1055.54 276.906 1055.43 276.868 1055.29 276.868C1055.16 276.868 1055.06 276.898 1054.97 276.958C1054.89 277.018 1054.85 277.099 1054.85 277.2C1054.85 277.291 1054.89 277.362 1054.97 277.412C1055.04 277.463 1055.2 277.514 1055.43 277.566C1055.66 277.617 1055.84 277.678 1055.98 277.749C1056.11 277.819 1056.21 277.904 1056.27 278.003C1056.34 278.102 1056.37 278.223 1056.37 278.365C1056.37 278.602 1056.27 278.795 1056.07 278.943C1055.88 279.09 1055.62 279.163 1055.3 279.163C1055.08 279.163 1054.89 279.124 1054.72 279.046C1054.55 278.968 1054.42 278.86 1054.33 278.723C1054.23 278.587 1054.18 278.439 1054.18 278.281H1054.76C1054.77 278.421 1054.82 278.53 1054.92 278.606C1055.02 278.681 1055.15 278.719 1055.31 278.719C1055.46 278.719 1055.58 278.689 1055.66 278.631C1055.74 278.57 1055.79 278.492 1055.79 278.396ZM1058.37 278.396C1058.37 278.29 1058.32 278.21 1058.24 278.155C1058.15 278.099 1058.01 278.05 1057.8 278.008C1057.6 277.966 1057.43 277.912 1057.3 277.847C1057 277.704 1056.85 277.496 1056.85 277.224C1056.85 276.997 1056.95 276.806 1057.14 276.653C1057.33 276.5 1057.58 276.424 1057.88 276.424C1058.19 276.424 1058.45 276.502 1058.64 276.658C1058.83 276.814 1058.93 277.017 1058.93 277.266H1058.34C1058.34 277.152 1058.3 277.058 1058.21 276.983C1058.13 276.906 1058.02 276.868 1057.88 276.868C1057.75 276.868 1057.64 276.898 1057.56 276.958C1057.47 277.018 1057.43 277.099 1057.43 277.2C1057.43 277.291 1057.47 277.362 1057.55 277.412C1057.62 277.463 1057.78 277.514 1058.01 277.566C1058.24 277.617 1058.43 277.678 1058.56 277.749C1058.69 277.819 1058.79 277.904 1058.85 278.003C1058.92 278.102 1058.95 278.223 1058.95 278.365C1058.95 278.602 1058.85 278.795 1058.66 278.943C1058.46 279.09 1058.2 279.163 1057.88 279.163C1057.67 279.163 1057.47 279.124 1057.3 279.046C1057.13 278.968 1057 278.86 1056.91 278.723C1056.81 278.587 1056.77 278.439 1056.77 278.281H1057.34C1057.35 278.421 1057.4 278.53 1057.5 278.606C1057.6 278.681 1057.73 278.719 1057.89 278.719C1058.05 278.719 1058.16 278.689 1058.25 278.631C1058.33 278.57 1058.37 278.492 1058.37 278.396ZM1061.79 278.296L1062.21 276.472H1062.79L1062.07 279.114H1061.58L1061.01 277.3L1060.46 279.114H1059.97L1059.25 276.472H1059.83L1060.25 278.277L1060.8 276.472H1061.24L1061.79 278.296ZM1063.08 277.769C1063.08 277.51 1063.13 277.277 1063.23 277.071C1063.33 276.862 1063.48 276.703 1063.66 276.592C1063.85 276.48 1064.06 276.424 1064.3 276.424C1064.66 276.424 1064.95 276.538 1065.17 276.768C1065.39 276.997 1065.51 277.302 1065.53 277.681L1065.53 277.82C1065.53 278.08 1065.48 278.313 1065.38 278.518C1065.28 278.723 1065.14 278.882 1064.95 278.994C1064.76 279.107 1064.55 279.163 1064.31 279.163C1063.93 279.163 1063.63 279.039 1063.41 278.792C1063.19 278.543 1063.08 278.212 1063.08 277.798V277.769ZM1063.67 277.82C1063.67 278.092 1063.72 278.305 1063.84 278.46C1063.95 278.613 1064.11 278.689 1064.31 278.689C1064.51 278.689 1064.66 278.611 1064.77 278.455C1064.88 278.299 1064.94 278.07 1064.94 277.769C1064.94 277.502 1064.88 277.29 1064.77 277.134C1064.65 276.978 1064.5 276.9 1064.3 276.9C1064.11 276.9 1063.95 276.977 1063.84 277.132C1063.73 277.285 1063.67 277.514 1063.67 277.82ZM1067.42 277.014C1067.34 277.001 1067.26 276.995 1067.17 276.995C1066.9 276.995 1066.72 277.099 1066.63 277.307V279.114H1066.03V276.472H1066.6L1066.61 276.768C1066.76 276.538 1066.95 276.424 1067.21 276.424C1067.29 276.424 1067.36 276.435 1067.42 276.458L1067.42 277.014ZM1067.63 277.774C1067.63 277.367 1067.73 277.04 1067.91 276.795C1068.1 276.547 1068.36 276.424 1068.67 276.424C1068.95 276.424 1069.18 276.521 1069.35 276.717V275.364H1069.95V279.114H1069.41L1069.38 278.841C1069.2 279.055 1068.96 279.163 1068.67 279.163C1068.36 279.163 1068.11 279.038 1067.92 278.789C1067.73 278.54 1067.63 278.202 1067.63 277.774ZM1068.22 277.825C1068.22 278.094 1068.28 278.303 1068.38 278.455C1068.48 278.605 1068.63 278.679 1068.82 278.679C1069.06 278.679 1069.24 278.571 1069.35 278.355V277.227C1069.24 277.015 1069.07 276.909 1068.82 276.909C1068.63 276.909 1068.48 276.986 1068.38 277.139C1068.28 277.29 1068.22 277.519 1068.22 277.825Z" fill="#979798"/>
<path d="M1076.37 311.668C1076.37 311.481 1076.31 311.336 1076.17 311.235C1076.04 311.133 1075.8 311.031 1075.46 310.927C1075.12 310.823 1074.84 310.708 1074.64 310.581C1074.25 310.337 1074.06 310.019 1074.06 309.626C1074.06 309.282 1074.2 308.999 1074.48 308.777C1074.76 308.554 1075.12 308.443 1075.57 308.443C1075.87 308.443 1076.13 308.497 1076.36 308.607C1076.6 308.716 1076.78 308.872 1076.91 309.075C1077.04 309.277 1077.11 309.5 1077.11 309.746H1076.37C1076.37 309.524 1076.3 309.35 1076.16 309.225C1076.02 309.098 1075.82 309.034 1075.56 309.034C1075.32 309.034 1075.13 309.086 1075 309.19C1074.87 309.293 1074.8 309.438 1074.8 309.623C1074.8 309.78 1074.87 309.91 1075.02 310.016C1075.16 310.119 1075.4 310.221 1075.73 310.321C1076.06 310.418 1076.33 310.531 1076.53 310.657C1076.73 310.782 1076.88 310.927 1076.97 311.091C1077.07 311.253 1077.11 311.444 1077.11 311.662C1077.11 312.018 1076.98 312.301 1076.7 312.512C1076.43 312.721 1076.06 312.825 1075.6 312.825C1075.29 312.825 1075 312.769 1074.74 312.656C1074.49 312.54 1074.28 312.382 1074.14 312.181C1074 311.98 1073.93 311.745 1073.93 311.478H1074.67C1074.67 311.72 1074.75 311.907 1074.91 312.04C1075.07 312.173 1075.3 312.24 1075.6 312.24C1075.85 312.24 1076.05 312.188 1076.18 312.084C1076.31 311.979 1076.37 311.84 1076.37 311.668ZM1078.45 312.767H1077.74V309.597H1078.45V312.767ZM1077.7 308.774C1077.7 308.664 1077.73 308.573 1077.8 308.501C1077.87 308.429 1077.97 308.393 1078.1 308.393C1078.23 308.393 1078.33 308.429 1078.4 308.501C1078.47 308.573 1078.5 308.664 1078.5 308.774C1078.5 308.881 1078.47 308.971 1078.4 309.043C1078.33 309.114 1078.23 309.149 1078.1 309.149C1077.97 309.149 1077.87 309.114 1077.8 309.043C1077.73 308.971 1077.7 308.881 1077.7 308.774ZM1079.11 311.158C1079.11 310.666 1079.22 310.274 1079.45 309.981C1079.68 309.686 1079.99 309.538 1080.37 309.538C1080.74 309.538 1081.02 309.664 1081.23 309.916L1081.26 309.597H1081.9V312.67C1081.9 313.086 1081.77 313.414 1081.51 313.655C1081.25 313.895 1080.9 314.015 1080.46 314.015C1080.23 314.015 1080 313.966 1079.78 313.868C1079.56 313.773 1079.39 313.647 1079.28 313.49L1079.62 313.063C1079.83 313.323 1080.1 313.452 1080.42 313.452C1080.66 313.452 1080.85 313.388 1080.98 313.259C1081.12 313.132 1081.19 312.945 1081.19 312.697V312.483C1080.98 312.711 1080.71 312.825 1080.37 312.825C1080 312.825 1079.69 312.678 1079.46 312.383C1079.22 312.088 1079.11 311.68 1079.11 311.158ZM1079.81 311.22C1079.81 311.538 1079.88 311.789 1080.01 311.973C1080.14 312.155 1080.32 312.245 1080.55 312.245C1080.84 312.245 1081.05 312.122 1081.19 311.876V310.482C1081.05 310.241 1080.84 310.121 1080.56 310.121C1080.32 310.121 1080.14 310.214 1080.01 310.4C1079.88 310.585 1079.81 310.859 1079.81 311.22ZM1083.29 309.597L1083.32 309.963C1083.55 309.68 1083.86 309.538 1084.24 309.538C1084.9 309.538 1085.23 309.916 1085.25 310.672V312.767H1084.53V310.713C1084.53 310.512 1084.49 310.364 1084.4 310.268C1084.32 310.17 1084.17 310.121 1083.98 310.121C1083.69 310.121 1083.48 310.251 1083.34 310.511V312.767H1082.62V309.597H1083.29ZM1088.85 311.24H1087.31V310.666H1088.85V311.24ZM1091.78 312.767H1091.04V308.501H1091.78V312.767ZM1093.29 309.597L1093.31 309.963C1093.54 309.68 1093.85 309.538 1094.23 309.538C1094.89 309.538 1095.22 309.916 1095.24 310.672V312.767H1094.52V310.713C1094.52 310.512 1094.48 310.364 1094.39 310.268C1094.31 310.17 1094.16 310.121 1093.97 310.121C1093.68 310.121 1093.47 310.251 1093.33 310.511V312.767H1092.61V309.597H1093.29Z" fill="#F8F8F2"/>
</g>
<path d="M1200.59 173.19C1197.33 176.446 1182 180 1182 180C1182 180 1185.53 164.695 1188.76 161.445C1190.32 159.883 1192.44 159.003 1194.65 159C1196.86 158.997 1198.98 159.87 1200.55 161.428C1202.12 162.985 1203 165.1 1203 167.306C1203 169.512 1202.13 171.628 1200.57 173.19H1200.59Z" fill="#6C63FF"/>
<path d="M1204.37 208.709C1201.53 212.631 1186 219 1186 219C1186 219 1186.95 202.606 1189.79 198.684C1191.15 196.799 1193.23 195.52 1195.56 195.127C1197.89 194.734 1200.29 195.26 1202.22 196.59C1204.15 197.919 1205.47 199.943 1205.87 202.215C1206.27 204.488 1205.73 206.824 1204.37 208.709V208.709Z" fill="#6C63FF"/>
<path opacity="0.25" d="M1200.59 173.19C1197.33 176.446 1182 180 1182 180C1182 180 1185.53 164.695 1188.76 161.445C1190.32 159.883 1192.44 159.003 1194.65 159C1196.86 158.997 1198.98 159.87 1200.55 161.428C1202.12 162.985 1203 165.1 1203 167.306C1203 169.512 1202.13 171.628 1200.57 173.19H1200.59Z" fill="black"/>
<path opacity="0.25" d="M1204.37 208.709C1201.53 212.631 1186 219 1186 219C1186 219 1186.95 202.606 1189.79 198.684C1191.15 196.799 1193.23 195.52 1195.56 195.127C1197.89 194.734 1200.29 195.26 1202.22 196.59C1204.15 197.919 1205.47 199.943 1205.87 202.215C1206.27 204.488 1205.73 206.824 1204.37 208.709V208.709Z" fill="black"/>
<path d="M1382 328.857V332H1289V329.441C1294.67 327.34 1299.59 323.604 1303.14 318.705C1306.69 313.807 1308.7 307.967 1308.93 301.924C1309.15 295.881 1307.58 289.907 1304.41 284.758C1301.23 279.609 1296.6 275.517 1291.1 273H1381.39C1376.01 275.465 1371.47 279.433 1368.31 284.425C1365.14 289.417 1363.49 295.218 1363.56 301.128C1363.62 307.037 1365.4 312.801 1368.67 317.722C1371.94 322.643 1376.57 326.511 1382 328.857V328.857Z" fill="#C8CAD7"/>
<path opacity="0.1" d="M1381 273C1376.82 274.879 1373.12 277.651 1370.17 281.111C1367.22 284.572 1365.1 288.634 1363.96 293H1307.04C1305.9 288.634 1303.78 284.572 1300.83 281.111C1297.88 277.651 1294.18 274.879 1290 273H1381Z" fill="black"/>
<path d="M1181 256V273.5C1181 283.164 1188.19 291 1197.07 291H1472.93C1481.81 291 1489 283.164 1489 273.5V256H1181Z" fill="#C8CAD7"/>
<path opacity="0.1" d="M1382 328.548V332H1289V329.189C1291.55 328.15 1293.96 326.741 1296.17 325H1376.31C1378.09 326.402 1379.99 327.592 1382 328.548Z" fill="black"/>
<path d="M1409.27 327H1261.73C1259.12 327 1257 328.791 1257 331C1257 333.209 1259.12 335 1261.73 335H1409.27C1411.88 335 1414 333.209 1414 331C1414 328.791 1411.88 327 1409.27 327Z" fill="#C8CAD7"/>
<path d="M1489 60.1751C1489 55.8852 1487.31 51.771 1484.29 48.7376C1481.28 45.7042 1477.19 44 1472.93 44H1197.07C1192.81 44 1188.72 45.7042 1185.71 48.7376C1182.69 51.771 1181 55.8852 1181 60.1751V260H1489V60.1751Z" fill="#474157"/>
<path d="M1472.1 60H1196.9C1192.54 60 1189 63.5342 1189 67.8939V238.106C1189 242.466 1192.54 246 1196.9 246H1472.1C1476.46 246 1480 242.466 1480 238.106V67.8939C1480 63.5342 1476.46 60 1472.1 60Z" fill="#F8F8F2"/>
<path d="M1334.5 55C1336.43 55 1338 53.433 1338 51.5C1338 49.567 1336.43 48 1334.5 48C1332.57 48 1331 49.567 1331 51.5C1331 53.433 1332.57 55 1334.5 55Z" fill="white"/>
<path d="M1335 284C1339.97 284 1344 279.971 1344 275C1344 270.029 1339.97 266 1335 266C1330.03 266 1326 270.029 1326 275C1326 279.971 1330.03 284 1335 284Z" fill="white"/>
<path d="M1480 67H1189C1189 65.1435 1189.83 63.363 1191.32 62.0503C1192.8 60.7375 1194.81 60 1196.9 60H1472.1C1474.19 60 1476.2 60.7375 1477.68 62.0503C1479.17 63.363 1480 65.1435 1480 67Z" fill="#C8CAD7"/>
<path d="M1197 65C1198.1 65 1199 64.1046 1199 63C1199 61.8954 1198.1 61 1197 61C1195.9 61 1195 61.8954 1195 63C1195 64.1046 1195.9 65 1197 65Z" fill="#FF5555"/>
<path d="M1203 65C1204.1 65 1205 64.1046 1205 63C1205 61.8954 1204.1 61 1203 61C1201.9 61 1201 61.8954 1201 63C1201 64.1046 1201.9 65 1203 65Z" fill="#F1FA8C"/>
<path d="M1209 65C1210.1 65 1211 64.1046 1211 63C1211 61.8954 1210.1 61 1209 61C1207.9 61 1207 61.8954 1207 63C1207 64.1046 1207.9 65 1209 65Z" fill="#50FA7B"/>
<path d="M1274 74H1199V78H1274V74Z" fill="#6C63FF"/>
<path d="M1274 204H1199V209H1274V204Z" fill="#6C63FF"/>
<path opacity="0.2" d="M1338 214H1199V219H1338V214Z" fill="#6C63FF"/>
<path opacity="0.2" d="M1338 220H1199V226H1338V220Z" fill="#6C63FF"/>
<path opacity="0.2" d="M1338 227H1199V231H1338V227Z" fill="#6C63FF"/>
<path opacity="0.2" d="M1337 87H1199V160H1337V87Z" fill="#6C63FF"/>
<path opacity="0.2" d="M1233 168H1201V197H1233V168Z" fill="#6C63FF"/>
<path opacity="0.2" d="M1337 168H1306V197H1337V168Z" fill="#6C63FF"/>
<path opacity="0.2" d="M1284 168H1253V197H1284V168Z" fill="#6C63FF"/>
<path opacity="0.2" d="M1462 108H1367V178H1462V108Z" fill="#6C63FF"/>
<path d="M1452 122H1377V126H1452V122Z" fill="#EDEDF4"/>
<path d="M1452 131H1377V135H1452V131Z" fill="#EDEDF4"/>
<path d="M1452 141H1377V145H1452V141Z" fill="#EDEDF4"/>
<path d="M1452 149H1377V155H1452V149Z" fill="#EDEDF4"/>
<path d="M1452 159H1377V163H1452V159Z" fill="#EDEDF4"/>
<path d="M1451 186H1378V197H1451V186Z" fill="#6C63FF"/>
<path d="M1424 227H1375V236H1424V227Z" fill="#6C63FF"/>
<path opacity="0.1" d="M1217.5 338C1221.64 338 1225 337.552 1225 337C1225 336.448 1221.64 336 1217.5 336C1213.36 336 1210 336.448 1210 337C1210 337.552 1213.36 338 1217.5 338Z" fill="#6C63FF"/>
<path opacity="0.1" d="M1472.99 256.174C1471.87 257.096 1469.89 257.06 1469.24 256.934L1469 253L1473 253.62C1472.94 254.469 1472.93 255.324 1472.99 256.174V256.174Z" fill="black"/>
<path opacity="0.1" d="M1459 241C1459 241 1459.49 248.743 1461.49 248.994C1463.48 249.246 1459 241 1459 241Z" fill="black"/>
<path d="M335 396C396.856 396 447 391.971 447 387C447 382.029 396.856 378 335 378C273.144 378 223 382.029 223 387C223 391.971 273.144 396 335 396Z" fill="#3F3D56"/>
<path d="M353 341.742L355.167 358L366 356.839L364.917 340L353 341.742Z" fill="#FFB8B8"/>
<path d="M299 341.742L296.667 358L285 356.839L286.167 340L299 341.742Z" fill="#FFB8B8"/>
<path d="M282.239 176.373C282.239 176.373 272.067 188.377 274.328 207.241C276.588 226.104 280.544 268.975 280.544 268.975L283.369 345L301.451 343.857L304.277 279.264L313.318 227.247L337.616 287.838C337.616 287.838 349.483 344.428 350.048 344.428C350.613 344.428 367 342.714 367 342.714L359.089 275.834C359.089 275.834 346.657 178.66 339.311 176.945C331.965 175.23 282.239 176.373 282.239 176.373Z" fill="#2F2E41"/>
<path d="M367.264 354.716C367.264 354.716 356.954 347.907 352.944 355.851C348.934 363.795 352.371 369.47 352.371 369.47C352.371 369.47 355.808 371.74 354.089 374.01C352.371 376.279 351.798 391.033 366.692 388.763C381.585 386.494 374.138 371.172 374.138 371.172L367.264 354.716Z" fill="#2F2E41"/>
<path d="M283.736 354.716C283.736 354.716 294.046 347.907 298.056 355.851C302.066 363.795 298.629 369.47 298.629 369.47C298.629 369.47 295.192 371.74 296.911 374.01C298.629 376.279 299.202 391.033 284.308 388.763C269.415 386.494 276.862 371.172 276.862 371.172L283.736 354.716Z" fill="#2F2E41"/>
<path d="M296 65.8378C296 65.8378 301.117 80.027 297.137 87.973C293.157 95.9189 303.391 105 303.391 105C303.391 105 330.11 91.3784 326.699 84.5676C323.288 77.7568 317.603 68.6757 318.74 63L296 65.8378Z" fill="#FFB8B8"/>
<path d="M306 71C315.941 71 324 62.9411 324 53C324 43.0589 315.941 35 306 35C296.059 35 288 43.0589 288 53C288 62.9411 296.059 71 306 71Z" fill="#FFB8B8"/>
<path d="M292.907 87.3246C292.907 87.3246 311.042 102.492 324.568 81L338.657 89.0276L346 175.317C346 175.317 304.769 199.16 285 178.723L287.824 98.6784L292.907 87.3246Z" fill="#D0CDE1"/>
<path d="M299 79L272.895 96.107L282.16 138.351L270 204L289.687 174.886L299 79Z" fill="#575A89"/>
<path d="M320.977 74L327.324 78.1796L353.121 87.3297L349.108 158.243L360 203.994L344.522 212C344.522 212 341.656 190.268 323.885 179.403C306.114 168.537 316.922 77.2549 320.977 74Z" fill="#575A89"/>
<path d="M278.72 185L286 189.907C286 189.907 276.76 199.447 275.08 197.811C274.594 197.357 274.216 196.804 273.974 196.192C273.732 195.579 273.632 194.922 273.68 194.268L272 190.452L278.72 185Z" fill="#FFB8B8"/>
<path d="M327.508 184L324.979 187.919C324.979 187.919 317.541 191.305 319.257 193.562C320.974 195.819 335.278 200.897 338.139 195.819L341 190.74L327.508 184Z" fill="#FFB8B8"/>
<path d="M276.444 95L272.51 95.5695L266.045 137.997C266.045 137.997 263.516 145.685 266.326 163.909C269.137 182.133 271.92 194 271.92 194L284.314 184.98L278.693 170.174L286 116.071L276.444 95Z" fill="#575A89"/>
<path d="M343.988 86L352.981 87.1414C352.981 87.1414 363.099 97.9843 364.786 109.398C366.472 120.812 365.91 153.34 365.91 153.34L340.053 195L326 184.728L345.674 149.346L336.118 107.115L343.988 86Z" fill="#575A89"/>
<path d="M323.696 36.7763C320.897 32.3905 316.516 29.1586 311.397 27.7027L307.637 30.6058L309.099 27.2197C307.869 27.0387 306.625 26.9693 305.382 27.0124L301.999 31.2103L303.399 27.1562C300.464 27.5083 297.635 28.4436 295.093 29.9031C292.55 31.3626 290.349 33.3147 288.627 35.6363C284.321 41.6282 283.594 49.9612 287.83 56C288.992 52.552 290.403 49.3167 291.566 45.8687C292.479 45.9889 293.406 45.9932 294.32 45.8816L295.735 42.6965L296.13 45.7469C300.514 45.3783 307.017 44.569 311.173 43.8275L310.769 41.4874L313.187 43.432C314.46 43.1491 315.216 42.8926 315.154 42.6965C318.245 47.5057 321.308 50.5774 324.399 55.3865C325.572 48.6031 327.643 42.9644 323.696 36.7763Z" fill="#2F2E41"/>
<path d="M322.5 55C323.328 55 324 53.8807 324 52.5C324 51.1193 323.328 50 322.5 50C321.672 50 321 51.1193 321 52.5C321 53.8807 321.672 55 322.5 55Z" fill="#FFB8B8"/>
<defs>
<clipPath id="clip0">
<rect width="415" height="274" fill="white" transform="translate(879 64)"/>
</clipPath>
</defs>
</svg>
